<?xml version="1.0" encoding="UTF-8" standalone="no"?>
<!-- Created with Inkscape (http://www.inkscape.org/) -->

<svg
   xmlns:dc="http://purl.org/dc/elements/1.1/"
   xmlns:cc="http://creativecommons.org/ns#"
   xmlns:rdf="http://www.w3.org/1999/02/22-rdf-syntax-ns#"
   xmlns:svg="http://www.w3.org/2000/svg"
   xmlns="http://www.w3.org/2000/svg"
   xmlns:xlink="http://www.w3.org/1999/xlink"
   xmlns:sodipodi="http://sodipodi.sourceforge.net/DTD/sodipodi-0.dtd"
   xmlns:inkscape="http://www.inkscape.org/namespaces/inkscape"
   id="svg3533"
   version="1.1"
   inkscape:version="0.48.2 r9819"
   width="32"
   height="32"
   sodipodi:docname="icon_nightmode_32.svg"
   inkscape:label="Background"
   inkscape:export-filename="/home/jussi/src/apps/orienteeringcompass/graphics/icon_d_nightmode_auto_32.png"
   inkscape:export-xdpi="90"
   inkscape:export-ydpi="90">
  <metadata
     id="metadata3539">
    <rdf:RDF>
      <cc:Work
         rdf:about="">
        <dc:format>image/svg+xml</dc:format>
        <dc:type
           rdf:resource="http://purl.org/dc/dcmitype/StillImage" />
        <dc:title></dc:title>
      </cc:Work>
    </rdf:RDF>
  </metadata>
  <defs
     id="defs3537">
    <linearGradient
       inkscape:collect="always"
       id="linearGradient5937">
      <stop
         style="stop-color:#4d4d4d;stop-opacity:1"
         offset="0"
         id="stop5939" />
      <stop
         style="stop-color:#000000;stop-opacity:1"
         offset="1"
         id="stop5941" />
    </linearGradient>
    <linearGradient
       inkscape:collect="always"
       id="linearGradient5801">
      <stop
         style="stop-color:#000000;stop-opacity:1"
         offset="0"
         id="stop5803" />
      <stop
         style="stop-color:#4d4d4d;stop-opacity:1"
         offset="1"
         id="stop5805" />
    </linearGradient>
    <linearGradient
       inkscape:collect="always"
       id="linearGradient5615">
      <stop
         style="stop-color:#4d4d4d;stop-opacity:1"
         offset="0"
         id="stop5617" />
      <stop
         style="stop-color:#000000;stop-opacity:1"
         offset="1"
         id="stop5619" />
    </linearGradient>
    <linearGradient
       inkscape:collect="always"
       xlink:href="#linearGradient4328-6"
       id="linearGradient4334-0"
       x1="40.508522"
       y1="79.492981"
       x2="40.795834"
       y2="1.8118246"
       gradientUnits="userSpaceOnUse"
       gradientTransform="matrix(0.99651454,0,0,1.0033301,0.13941709,-0.64236682)" />
    <linearGradient
       inkscape:collect="always"
       id="linearGradient4328-6">
      <stop
         style="stop-color:#000000;stop-opacity:1;"
         offset="0"
         id="stop4330-6" />
      <stop
         style="stop-color:#808080;stop-opacity:1"
         offset="1"
         id="stop4332-2" />
    </linearGradient>
    <linearGradient
       inkscape:collect="always"
       xlink:href="#linearGradient5615"
       id="linearGradient5621"
       x1="15.948903"
       y1="32.053234"
       x2="15.974653"
       y2="0.099652931"
       gradientUnits="userSpaceOnUse" />
    <linearGradient
       inkscape:collect="always"
       xlink:href="#linearGradient5801"
       id="linearGradient5807"
       x1="-0.16216278"
       y1="15.162162"
       x2="21.135136"
       y2="15.162162"
       gradientUnits="userSpaceOnUse" />
    <linearGradient
       inkscape:collect="always"
       xlink:href="#linearGradient5937"
       id="linearGradient5943"
       x1="16.418423"
       y1="28.13937"
       x2="16.122171"
       y2="0.06842649"
       gradientUnits="userSpaceOnUse" />
  </defs>
  <sodipodi:namedview
     pagecolor="#ffffff"
     bordercolor="#666666"
     borderopacity="1"
     objecttolerance="10"
     gridtolerance="10"
     guidetolerance="10"
     inkscape:pageopacity="0"
     inkscape:pageshadow="2"
     inkscape:window-width="1389"
     inkscape:window-height="856"
     id="namedview3535"
     showgrid="false"
     inkscape:zoom="16.99266"
     inkscape:cx="4.5789442"
     inkscape:cy="15.604621"
     inkscape:window-x="51"
     inkscape:window-y="0"
     inkscape:window-maximized="1"
     inkscape:current-layer="layer1" />
  <g
     inkscape:groupmode="layer"
     id="layer3"
     inkscape:label="Background"
     style="display:none">
    <path
       style="opacity:0.39552241;fill:#b3b3b3;fill-opacity:1;stroke:#000000;stroke-width:0.19935691;stroke-miterlimit:4;stroke-opacity:1;stroke-dasharray:0.1993569, 0.1993569;stroke-dashoffset:0;display:inline"
       d="M 0.33499663,45.144785 C -6.6468329,42.918687 -10.954357,38.50578 -13.158323,31.321358 -15.465154,23.801637 -15.48427,7.9146802 -13.195459,0.45371799 -11.174788,-6.1332008 -6.4779049,-11.184371 -0.38492398,-13.323123 c 5.99093498,-2.102931 26.77892598,-2.102931 32.76986098,0 6.09298,2.138752 10.789862,7.1899222 12.810534,13.77684099 C 47.484273,7.9146802 47.465158,23.801637 45.158325,31.321358 42.9106,38.648421 38.666396,42.921648 31.38911,45.18475 23.978658,47.489255 7.6220546,47.468212 0.33500062,45.144824 z"
       id="path3547"
       inkscape:connector-curvature="0" />
    <rect
       style="opacity:0.53731342;fill:#ffffff;fill-opacity:1;stroke:none"
       id="rect5623"
       width="3.7839768"
       height="0.30577591"
       x="14.065692"
       y="31.503115" />
  </g>
  <g
     inkscape:groupmode="layer"
     id="layer1"
     inkscape:label="Day - light"
     transform="translate(0,-48)"
     style="display:inline">
    <path
       style="opacity:0.98000004;fill:url(#linearGradient5621);fill-opacity:1;stroke:none"
       d="m 14.125,0.125 0,5.75 3.75,0 0,-5.75 -3.75,0 z M 6.1875,3.6875 3.5625,6.34375 7.625,10.375 10.25,7.75 6.1875,3.6875 z m 19.625,0 L 21.75,7.75 24.375,10.375 28.4375,6.34375 25.8125,3.6875 z M 16,8.21875 c -4.298443,0 -7.78125,3.482807 -7.78125,7.78125 0,4.298443 3.482807,7.78125 7.78125,7.78125 4.298443,0 7.78125,-3.482807 7.78125,-7.78125 0,-4.298443 -3.482807,-7.78125 -7.78125,-7.78125 z M 0.125,14.125 l 0,3.75 5.75,0 0,-3.75 -5.75,0 z m 26,0 0,3.75 5.75,0 0,-3.75 -5.75,0 z m -18.5,7.75 -4.0625,4.0625 2.625,2.625 L 10.25,24.53125 7.625,21.875 z m 16.75,0 -2.625,2.65625 4.0625,4.03125 2.625,-2.625 -4.0625,-4.0625 z m -10.25,4.25 0,5.75 3.75,0 0,-5.75 -3.75,0 z"
       transform="translate(0,48)"
       id="path5192"
       inkscape:export-filename="/home/jussi/src/apps/orienteeringcompass/graphics/icon_d_nightmode_day.png"
       inkscape:export-xdpi="90"
       inkscape:export-ydpi="90"
       inkscape:connector-curvature="0" />
  </g>
  <g
     inkscape:groupmode="layer"
     id="layer4"
     inkscape:label="Night - light"
     style="display:none">
    <path
       transform="matrix(0,1.4086294,-1.4086294,0,35.857868,1.2284265)"
       style="fill:url(#linearGradient5807);fill-opacity:1;stroke:none"
       d="m 21.135136,9.8378382 c 0,5.8810868 -4.767563,10.6486488 -10.64865,10.6486488 -5.8810861,0 -10.64864878,-4.767562 -10.64864878,-10.6486488 l 0,-5e-7 c 0,0 3.91651938,2.6245063 10.39798378,2.5484243 6.671957,-0.08089 10.899315,-2.5484238 10.899315,-2.5484238 z"
       id="path5784"
       inkscape:connector-curvature="0"
       sodipodi:nodetypes="cssccc" />
  </g>
  <g
     style="display:none"
     inkscape:label="Night - night"
     id="g5797"
     inkscape:groupmode="layer">
    <path
       sodipodi:nodetypes="cssccc"
       inkscape:connector-curvature="0"
       id="path5799"
       d="m 21.135136,9.8378382 c 0,5.8810868 -4.767563,10.6486488 -10.64865,10.6486488 -5.8810861,0 -10.64864878,-4.767562 -10.64864878,-10.6486488 l 0,-5e-7 c 0,0 3.91651938,2.6245063 10.39798378,2.5484243 6.671957,-0.08089 10.899315,-2.5484238 10.899315,-2.5484238 z"
       style="fill:#ffffff;fill-opacity:1;stroke:none"
       transform="matrix(0,1.4086294,-1.4086294,0,35.857868,1.2284265)" />
  </g>
  <g
     inkscape:groupmode="layer"
     id="layer5"
     inkscape:label="Auto - light"
     style="display:none">
    <path
       style="font-size:49.77848434px;font-style:normal;font-weight:normal;line-height:125%;letter-spacing:0px;word-spacing:0px;fill:url(#linearGradient5943);fill-opacity:1;stroke:none;font-family:Sans"
       d="m 14,0 0,6 4,0 0,-6 -4,0 z M 5.53125,2.8125 2.6875,5.625 l 4.25,4.25 2.84375,-2.8125 -4.25,-4.25 z m 21.125,0 -4.25,4.25 L 25.25,9.875 29.5,5.625 26.65625,2.8125 z m 1,12.84375 c -0.66301,1.2e-5 -1.220288,0.124027 -1.71875,0.34375 -0.498466,0.219746 -0.923544,0.52734 -1.21875,0.9375 -0.290369,0.410182 -0.441927,0.876944 -0.5,1.375 -0.05324,0.493192 -0.09375,1.339807 -0.09375,2.53125 l 0,2 c -1e-6,1.220753 0.03568,2.074203 0.09375,2.5625 0.05807,0.488301 0.226363,0.959947 0.53125,1.375 0.304885,0.415055 0.720283,0.727531 1.21875,0.9375 0.503301,0.205086 1.058366,0.3125 1.6875,0.3125 0.663002,0 1.25153,-0.124015 1.75,-0.34375 0.498458,-0.219735 0.897126,-0.527328 1.1875,-0.9375 0.2952,-0.41017 0.478008,-0.850565 0.53125,-1.34375 0.05807,-0.498063 0.06249,-1.371045 0.0625,-2.5625 l 0,-2 c -8e-6,-1.220741 -0.0044,-2.105441 -0.0625,-2.59375 -0.05808,-0.48829 -0.257621,-0.928685 -0.5625,-1.34375 -0.304893,-0.415043 -0.715452,-0.732403 -1.21875,-0.9375 -0.49847,-0.209957 -1.058375,-0.312488 -1.6875,-0.3125 z m -25.125,0.25 L 1,27.78125 l 3.15625,0 0.1875,-2.15625 1.09375,0 0.15625,2.15625 3.125,0 -1.75,-11.875 -4.4375,0 z m 6.65625,0 0,7.03125 c -6e-7,1.337944 0.014105,2.205065 0.0625,2.625 0.048394,0.415056 0.2338287,0.811511 0.5,1.1875 0.266169,0.375991 0.650318,0.671867 1.1875,0.90625 0.537177,0.234384 1.173274,0.375 1.875,0.375 0.633965,0 1.160406,-0.11718 1.625,-0.3125 0.469422,-0.200203 0.870715,-0.494126 1.15625,-0.875 0.285521,-0.385755 0.441919,-0.732407 0.5,-1.09375 0.05807,-0.366222 0.09374,-1.007776 0.09375,-1.90625 l 0,-7.9375 -3.0625,0 0,8.75 c -5e-6,0.590845 -0.03568,0.963863 -0.09375,1.125 -0.05324,0.156258 -0.181426,0.218752 -0.375,0.21875 -0.169385,2e-6 -0.28568,-0.04589 -0.34375,-0.1875 -0.05324,-0.146488 -0.0625,-0.4824 -0.0625,-1 l 0,-8.90625 -3.0625,0 z m 7.65625,0 0,2.375 1.8125,0 0,9.5 3.0625,0 0,-9.5 1.8125,0 0,-2.375 -6.6875,0 z m 10.84375,1.75 c 0.188735,10e-6 0.316922,0.09375 0.375,0.25 0.06291,0.151383 0.09374,0.510731 0.09375,1.0625 l 0,5.4375 c -5e-6,0.698271 -0.03568,1.158198 -0.09375,1.34375 -0.05808,0.185556 -0.198157,0.250002 -0.40625,0.25 -0.203261,2e-6 -0.31693,-0.05761 -0.375,-0.21875 C 27.228012,25.620113 27.187496,25.188505 27.1875,24.5 l 0,-5.53125 c -4e-6,-0.610365 0.04273,-0.971665 0.125,-1.09375 0.08711,-0.126948 0.215294,-0.21874 0.375,-0.21875 z M 4.875,18.5625 c 0.1548588,1.972738 0.3138831,3.625932 0.46875,4.96875 l -1.03125,0 C 4.3899281,22.481411 4.5652709,20.828217 4.875,18.5625 z"
       id="text5810"
       inkscape:connector-curvature="0" />
  </g>
  <g
     style="display:none"
     inkscape:label="Auto - dark"
     id="g5945"
     inkscape:groupmode="layer">
    <path
       inkscape:connector-curvature="0"
       id="path5947"
       d="m 14,0 0,6 4,0 0,-6 -4,0 z M 5.53125,2.8125 2.6875,5.625 l 4.25,4.25 2.84375,-2.8125 -4.25,-4.25 z m 21.125,0 -4.25,4.25 L 25.25,9.875 29.5,5.625 26.65625,2.8125 z m 1,12.84375 c -0.66301,1.2e-5 -1.220288,0.124027 -1.71875,0.34375 -0.498466,0.219746 -0.923544,0.52734 -1.21875,0.9375 -0.290369,0.410182 -0.441927,0.876944 -0.5,1.375 -0.05324,0.493192 -0.09375,1.339807 -0.09375,2.53125 l 0,2 c -1e-6,1.220753 0.03568,2.074203 0.09375,2.5625 0.05807,0.488301 0.226363,0.959947 0.53125,1.375 0.304885,0.415055 0.720283,0.727531 1.21875,0.9375 0.503301,0.205086 1.058366,0.3125 1.6875,0.3125 0.663002,0 1.25153,-0.124015 1.75,-0.34375 0.498458,-0.219735 0.897126,-0.527328 1.1875,-0.9375 0.2952,-0.41017 0.478008,-0.850565 0.53125,-1.34375 0.05807,-0.498063 0.06249,-1.371045 0.0625,-2.5625 l 0,-2 c -8e-6,-1.220741 -0.0044,-2.105441 -0.0625,-2.59375 -0.05808,-0.48829 -0.257621,-0.928685 -0.5625,-1.34375 -0.304893,-0.415043 -0.715452,-0.732403 -1.21875,-0.9375 -0.49847,-0.209957 -1.058375,-0.312488 -1.6875,-0.3125 z m -25.125,0.25 L 1,27.78125 l 3.15625,0 0.1875,-2.15625 1.09375,0 0.15625,2.15625 3.125,0 -1.75,-11.875 -4.4375,0 z m 6.65625,0 0,7.03125 c -6e-7,1.337944 0.014105,2.205065 0.0625,2.625 0.048394,0.415056 0.2338287,0.811511 0.5,1.1875 0.266169,0.375991 0.650318,0.671867 1.1875,0.90625 0.537177,0.234384 1.173274,0.375 1.875,0.375 0.633965,0 1.160406,-0.11718 1.625,-0.3125 0.469422,-0.200203 0.870715,-0.494126 1.15625,-0.875 0.285521,-0.385755 0.441919,-0.732407 0.5,-1.09375 0.05807,-0.366222 0.09374,-1.007776 0.09375,-1.90625 l 0,-7.9375 -3.0625,0 0,8.75 c -5e-6,0.590845 -0.03568,0.963863 -0.09375,1.125 -0.05324,0.156258 -0.181426,0.218752 -0.375,0.21875 -0.169385,2e-6 -0.28568,-0.04589 -0.34375,-0.1875 -0.05324,-0.146488 -0.0625,-0.4824 -0.0625,-1 l 0,-8.90625 -3.0625,0 z m 7.65625,0 0,2.375 1.8125,0 0,9.5 3.0625,0 0,-9.5 1.8125,0 0,-2.375 -6.6875,0 z m 10.84375,1.75 c 0.188735,10e-6 0.316922,0.09375 0.375,0.25 0.06291,0.151383 0.09374,0.510731 0.09375,1.0625 l 0,5.4375 c -5e-6,0.698271 -0.03568,1.158198 -0.09375,1.34375 -0.05808,0.185556 -0.198157,0.250002 -0.40625,0.25 -0.203261,2e-6 -0.31693,-0.05761 -0.375,-0.21875 C 27.228012,25.620113 27.187496,25.188505 27.1875,24.5 l 0,-5.53125 c -4e-6,-0.610365 0.04273,-0.971665 0.125,-1.09375 0.08711,-0.126948 0.215294,-0.21874 0.375,-0.21875 z M 4.875,18.5625 c 0.1548588,1.972738 0.3138831,3.625932 0.46875,4.96875 l -1.03125,0 C 4.3899281,22.481411 4.5652709,20.828217 4.875,18.5625 z"
       style="font-size:49.77848434px;font-style:normal;font-weight:normal;line-height:125%;letter-spacing:0px;word-spacing:0px;fill:#ffffff;fill-opacity:1;stroke:none;font-family:Sans" />
  </g>
  <g
     style="display:none"
     transform="translate(0,-48)"
     inkscape:label="Day - dark"
     id="g5779"
     inkscape:groupmode="layer">
    <path
       inkscape:connector-curvature="0"
       inkscape:export-ydpi="90"
       inkscape:export-xdpi="90"
       inkscape:export-filename="/home/jussi/src/apps/orienteeringcompass/graphics/icon_d_nightmode_day.png"
       id="path5781"
       transform="translate(0,48)"
       d="m 14.125,0.125 0,5.75 3.75,0 0,-5.75 -3.75,0 z M 6.1875,3.6875 3.5625,6.34375 7.625,10.375 10.25,7.75 6.1875,3.6875 z m 19.625,0 L 21.75,7.75 24.375,10.375 28.4375,6.34375 25.8125,3.6875 z M 16,8.21875 c -4.298443,0 -7.78125,3.482807 -7.78125,7.78125 0,4.298443 3.482807,7.78125 7.78125,7.78125 4.298443,0 7.78125,-3.482807 7.78125,-7.78125 0,-4.298443 -3.482807,-7.78125 -7.78125,-7.78125 z M 0.125,14.125 l 0,3.75 5.75,0 0,-3.75 -5.75,0 z m 26,0 0,3.75 5.75,0 0,-3.75 -5.75,0 z m -18.5,7.75 -4.0625,4.0625 2.625,2.625 L 10.25,24.53125 7.625,21.875 z m 16.75,0 -2.625,2.65625 4.0625,4.03125 2.625,-2.625 -4.0625,-4.0625 z m -10.25,4.25 0,5.75 3.75,0 0,-5.75 -3.75,0 z"
       style="opacity:0.98000004;fill:#ffffff;fill-opacity:1;stroke:none" />
  </g>
</svg>
