<?xml version="1.0" encoding="UTF-8" standalone="no"?>
<!-- Created with Inkscape (http://www.inkscape.org/) -->

<svg
   xmlns:dc="http://purl.org/dc/elements/1.1/"
   xmlns:cc="http://creativecommons.org/ns#"
   xmlns:rdf="http://www.w3.org/1999/02/22-rdf-syntax-ns#"
   xmlns:svg="http://www.w3.org/2000/svg"
   xmlns="http://www.w3.org/2000/svg"
   xmlns:xlink="http://www.w3.org/1999/xlink"
   xmlns:sodipodi="http://sodipodi.sourceforge.net/DTD/sodipodi-0.dtd"
   xmlns:inkscape="http://www.inkscape.org/namespaces/inkscape"
   id="svg3533"
   version="1.1"
   inkscape:version="0.48.2 r9819"
   width="32"
   height="32"
   sodipodi:docname="ambient_testicon.svg"
   inkscape:label="Background"
   inkscape:export-filename="/Users/vuorijus/src/sailfish/ambienticon/ambienticon/qml/icons/ambient_testicon_green_96.png"
   inkscape:export-xdpi="270"
   inkscape:export-ydpi="270">
  <metadata
     id="metadata3539">
    <rdf:RDF>
      <cc:Work
         rdf:about="">
        <dc:format>image/svg+xml</dc:format>
        <dc:type
           rdf:resource="http://purl.org/dc/dcmitype/StillImage" />
        <dc:title></dc:title>
      </cc:Work>
    </rdf:RDF>
  </metadata>
  <defs
     id="defs3537">
    <linearGradient
       inkscape:collect="always"
       xlink:href="#linearGradient4328-6"
       id="linearGradient4334-0"
       x1="40.508522"
       y1="79.492981"
       x2="40.795834"
       y2="1.8118246"
       gradientUnits="userSpaceOnUse"
       gradientTransform="matrix(0.99651454,0,0,1.0033301,0.13941709,-0.64236682)" />
    <linearGradient
       inkscape:collect="always"
       id="linearGradient4328-6">
      <stop
         style="stop-color:#000000;stop-opacity:1;"
         offset="0"
         id="stop4330-6" />
      <stop
         style="stop-color:#808080;stop-opacity:1"
         offset="1"
         id="stop4332-2" />
    </linearGradient>
  </defs>
  <sodipodi:namedview
     pagecolor="#ffffff"
     bordercolor="#666666"
     borderopacity="1"
     objecttolerance="10"
     gridtolerance="10"
     guidetolerance="10"
     inkscape:pageopacity="0"
     inkscape:pageshadow="2"
     inkscape:window-width="1389"
     inkscape:window-height="856"
     id="namedview3535"
     showgrid="false"
     inkscape:zoom="16.99266"
     inkscape:cx="12.38627"
     inkscape:cy="15.604621"
     inkscape:window-x="51"
     inkscape:window-y="0"
     inkscape:window-maximized="1"
     inkscape:current-layer="layer2" />
  <g
     inkscape:groupmode="layer"
     id="layer3"
     inkscape:label="Background"
     style="display:none">
    <path
       style="opacity:0.39552241;fill:#b3b3b3;fill-opacity:1;stroke:#000000;stroke-width:0.19935691;stroke-miterlimit:4;stroke-opacity:1;stroke-dasharray:0.1993569, 0.1993569;stroke-dashoffset:0;display:inline"
       d="M 0.33499663,45.144785 C -6.6468329,42.918687 -10.954357,38.50578 -13.158323,31.321358 -15.465154,23.801637 -15.48427,7.9146802 -13.195459,0.45371799 -11.174788,-6.1332008 -6.4779049,-11.184371 -0.38492398,-13.323123 c 5.99093498,-2.102931 26.77892598,-2.102931 32.76986098,0 6.09298,2.138752 10.789862,7.1899222 12.810534,13.77684099 C 47.484273,7.9146802 47.465158,23.801637 45.158325,31.321358 42.9106,38.648421 38.666396,42.921648 31.38911,45.18475 23.978658,47.489255 7.6220546,47.468212 0.33500062,45.144824 z"
       id="path3547"
       inkscape:connector-curvature="0" />
    <rect
       style="opacity:0.53731342;fill:#ffffff;fill-opacity:1;stroke:none"
       id="rect5623"
       width="3.7839768"
       height="0.30577591"
       x="14.065692"
       y="31.503115" />
  </g>
  <g
     style="display:none"
     transform="translate(0,-48)"
     inkscape:label="White"
     id="g5779"
     inkscape:groupmode="layer">
    <path
       inkscape:connector-curvature="0"
       inkscape:export-ydpi="90"
       inkscape:export-xdpi="90"
       inkscape:export-filename="/home/jussi/src/apps/orienteeringcompass/graphics/icon_d_nightmode_day.png"
       id="path5781"
       transform="translate(0,48)"
       d="m 14.125,0.125 0,5.75 3.75,0 0,-5.75 -3.75,0 z M 6.1875,3.6875 3.5625,6.34375 7.625,10.375 10.25,7.75 6.1875,3.6875 z m 19.625,0 L 21.75,7.75 24.375,10.375 28.4375,6.34375 25.8125,3.6875 z M 16,8.21875 c -4.298443,0 -7.78125,3.482807 -7.78125,7.78125 0,4.298443 3.482807,7.78125 7.78125,7.78125 4.298443,0 7.78125,-3.482807 7.78125,-7.78125 0,-4.298443 -3.482807,-7.78125 -7.78125,-7.78125 z M 0.125,14.125 l 0,3.75 5.75,0 0,-3.75 -5.75,0 z m 26,0 0,3.75 5.75,0 0,-3.75 -5.75,0 z m -18.5,7.75 -4.0625,4.0625 2.625,2.625 L 10.25,24.53125 7.625,21.875 z m 16.75,0 -2.625,2.65625 4.0625,4.03125 2.625,-2.625 -4.0625,-4.0625 z m -10.25,4.25 0,5.75 3.75,0 0,-5.75 -3.75,0 z"
       style="opacity:0.98000004;fill:#ffffff;fill-opacity:1;stroke:none" />
  </g>
  <g
     inkscape:groupmode="layer"
     id="layer1"
     inkscape:label="Red"
     style="display:none">
    <path
       inkscape:connector-curvature="0"
       inkscape:export-ydpi="90"
       inkscape:export-xdpi="90"
       inkscape:export-filename="/home/jussi/src/apps/orienteeringcompass/graphics/icon_d_nightmode_day.png"
       id="path5781-4"
       d="m 14.125,0.125 0,5.75 3.75,0 0,-5.75 -3.75,0 z m -7.9375002,3.5625 -2.625,2.65625 4.0625,4.03125 L 10.25,7.75 6.1874998,3.6875 z M 25.8125,3.6875 21.75,7.75 24.375,10.375 28.4375,6.34375 25.8125,3.6875 z M 16,8.21875 c -4.298443,0 -7.7812502,3.482807 -7.7812502,7.78125 0,4.298443 3.4828072,7.78125 7.7812502,7.78125 4.298443,0 7.78125,-3.482807 7.78125,-7.78125 0,-4.298443 -3.482807,-7.78125 -7.78125,-7.78125 z M 0.12500025,14.125 l 0,3.75 5.74999955,0 0,-3.75 -5.74999955,0 z m 25.99999975,0 0,3.75 5.75,0 0,-3.75 -5.75,0 z m -18.5000002,7.75 -4.0625,4.0625 2.625,2.625 L 10.25,24.53125 7.6249998,21.875 z m 16.7500002,0 -2.625,2.65625 4.0625,4.03125 2.625,-2.625 -4.0625,-4.0625 z m -10.25,4.25 0,5.75 3.75,0 0,-5.75 -3.75,0 z"
       style="opacity:0.98000004;fill:#ff0000;fill-opacity:1;stroke:none;display:inline" />
  </g>
  <g
     inkscape:groupmode="layer"
     id="layer2"
     inkscape:label="Green"
     style="display:inline">
    <path
       inkscape:connector-curvature="0"
       inkscape:export-ydpi="90"
       inkscape:export-xdpi="90"
       inkscape:export-filename="/home/jussi/src/apps/orienteeringcompass/graphics/icon_d_nightmode_day.png"
       id="path5781-4-5"
       d="m 14.125,0.12500015 0,5.74999995 3.75,0 0,-5.74999995 -3.75,0 z M 6.1874999,3.6875002 3.5624999,6.3437501 7.6249999,10.375 10.25,7.7499998 6.1874999,3.6875002 z m 19.6250001,0 L 21.75,7.7499998 24.375,10.375 28.4375,6.3437501 25.8125,3.6875002 z M 16,8.2187499 c -4.298443,0 -7.78125,3.4828071 -7.78125,7.7812501 0,4.298443 3.482807,7.78125 7.78125,7.78125 4.298443,0 7.78125,-3.482807 7.78125,-7.78125 0,-4.298443 -3.482807,-7.7812501 -7.78125,-7.7812501 z M 0.12500005,14.125 l 0,3.75 5.74999985,0 0,-3.75 -5.74999985,0 z m 25.99999995,0 0,3.75 5.75,0 0,-3.75 -5.75,0 z m -18.5000001,7.75 -4.0625,4.0625 2.625,2.625 L 10.25,24.53125 7.6249999,21.875 z m 16.7500001,0 -2.625,2.65625 4.0625,4.03125 2.625,-2.625 -4.0625,-4.0625 z m -10.25,4.25 0,5.75 3.75,0 0,-5.75 -3.75,0 z"
       style="opacity:0.98000003999999996;fill:#00ff00;fill-opacity:1;stroke:none;display:inline" />
  </g>
  <g
     inkscape:groupmode="layer"
     id="layer4"
     inkscape:label="Blue"
     style="display:none">
    <path
       inkscape:connector-curvature="0"
       inkscape:export-ydpi="90"
       inkscape:export-xdpi="90"
       inkscape:export-filename="/home/jussi/src/apps/orienteeringcompass/graphics/icon_d_nightmode_day.png"
       id="path5781-4-1"
       d="m 14.125,0.1249998 0,5.7500004 3.75,0 0,-5.7500004 -3.75,0 z m -7.937501,3.5625004 -2.625,2.65625 L 7.624999,10.375 10.25,7.7500002 6.187499,3.6875002 z m 19.625001,0 -4.0625,4.0625 2.625,2.6249998 4.0625,-4.0312498 -2.625,-2.65625 z M 16,8.2187502 c -4.298443,0 -7.781251,3.4828068 -7.781251,7.7812498 0,4.298443 3.482808,7.78125 7.781251,7.78125 4.298443,0 7.78125,-3.482807 7.78125,-7.78125 0,-4.298443 -3.482807,-7.7812498 -7.78125,-7.7812498 z M 0.125,14.125 l 0,3.75 5.749999,0 0,-3.75 -5.749999,0 z m 26,0 0,3.75 5.75,0 0,-3.75 -5.75,0 z m -18.500001,7.75 -4.0625,4.0625 2.625,2.625 L 10.25,24.53125 7.624999,21.875 z m 16.750001,0 -2.625,2.65625 4.0625,4.03125 2.625,-2.625 -4.0625,-4.0625 z m -10.25,4.25 0,5.75 3.75,0 0,-5.75 -3.75,0 z"
       style="opacity:0.98000004;fill:#0000ff;fill-opacity:1;stroke:none;display:inline" />
  </g>
</svg>
